# Blender 4.4.0
# www.blender.org
mtllib Building_2.mtl
o Building_2
v -13.084503 -8.560697 -16.742409
v -26.056427 -8.560697 5.873978
v -12.956009 -8.560697 28.416180
v 13.116302 -8.560697 28.341991
v 26.088226 -8.560697 5.725601
v 12.987808 -8.560697 -16.816597
v -26.056427 2.155489 5.873978
v -13.084503 2.155489 -16.742409
v -12.956009 2.155489 28.416180
v 13.116302 2.155489 28.341991
v 26.088226 2.155489 5.725601
v 12.987808 2.155489 -16.816597
v -29.522949 -8.560697 5.883839
v -14.826309 -8.560697 -19.739574
v 29.554749 -8.560697 5.715740
v 14.712524 -8.560697 -19.823624
v 14.712524 2.155489 -19.823624
v -14.826309 2.155489 -19.739574
v -29.522949 2.155489 5.883839
v 29.554749 2.155489 5.715740
v 13.116302 7.835723 28.341991
v -12.956009 7.835723 28.416180
v -26.056427 7.835723 5.873978
v -13.084503 7.835723 -16.742409
v 26.088226 7.835723 5.725601
v 12.987808 7.835723 -16.816597
v -14.826309 7.835723 -19.739574
v 14.712524 7.835723 -19.823624
v -29.522949 7.835723 5.883839
v 29.554749 7.835723 5.715740
v -26.179550 -8.560697 6.329685
v -13.145706 -8.560697 -16.394661
v -13.016602 -8.560697 28.979488
v 13.180191 -8.560697 28.904949
v 26.214020 -8.560697 6.180603
v 13.051071 -8.560697 -16.469202
v 13.212326 -1.332326 -16.679897
v -13.177429 -1.332326 29.330349
v -13.308136 -1.332326 -16.604435
v 13.343033 -1.332326 29.254879
v 26.537903 -1.332326 6.249760
v -26.503006 -1.332326 6.400684
v -1.296310 -8.560696 -16.767139
v 1.202164 -8.560696 -16.791866
v -2.896942 2.155489 -16.767139
v 2.804810 2.155489 -16.791868
v -1.464859 -8.560696 -19.767590
v 1.365814 -8.560696 -19.795607
v -2.639648 2.155489 -19.767593
v 2.538574 2.155489 -19.795609
v -1.296310 7.835721 -16.767139
v 1.202164 7.835721 -16.791866
v -2.639648 7.835721 -19.767593
v 2.538574 7.835721 -19.795609
v -1.304901 -8.560696 -16.419508
v 1.205490 -8.560696 -16.444355
v 1.220383 -1.332326 -16.654743
v -1.321030 -1.332326 -16.629591
v -13.084503 7.031990 -16.742409
v 12.987808 7.031990 -16.816597
v -12.956009 7.031990 28.416180
v 13.116302 7.031990 28.341991
v 26.088226 7.031990 5.725601
v -26.056427 7.031990 5.873978
v -2.896942 7.031988 -16.767139
v 2.804810 7.031988 -16.791868
v -14.680725 2.155489 31.423199
v -14.680725 7.835723 31.423199
v 14.858109 -8.560697 31.339153
v -14.680725 -8.560697 31.423199
v 14.858109 2.155489 31.339153
v 14.858109 7.835723 31.339153
vn -0.0000 -1.0000 -0.0000
vn -0.0023 -0.0000 -1.0000
vn -0.0028 -0.0000 -1.0000
vn 0.8674 -0.0000 0.4975
vn -0.0022 -0.0001 -1.0000
vn -0.8674 -0.0000 -0.4975
vn 0.8646 -0.0000 -0.5025
vn -0.8646 -0.0000 0.5025
vn 0.0023 0.0022 1.0000
vn -0.0000 1.0000 -0.0000
vn 0.8669 0.0339 0.4972
vn -0.8666 0.0436 -0.4971
vn -0.0028 0.0484 -0.9988
vn -0.8641 0.0339 0.5022
vn 0.8638 0.0436 -0.5020
vn 0.0021 0.0291 0.9996
vn 0.0099 0.0291 0.9995
vn 0.0023 -0.0022 1.0000
vn 0.0060 -0.0000 1.0000
vn -0.0022 0.0001 -1.0000
vn -0.0070 -0.0000 -1.0000
vn 0.0024 -0.0000 1.0000
vn 0.0028 -0.0000 1.0000
vn 0.9963 -0.0000 0.0854
vn -0.9961 -0.0000 0.0883
vn -0.8640 -0.0359 0.5021
vn 0.0022 0.0388 0.9992
vn 0.0022 0.0399 0.9992
vn 0.0060 0.0393 0.9992
vn 0.8669 -0.0359 0.4972
vn 0.8499 -0.1834 -0.4939
vn -0.0028 -0.2534 -0.9674
vn -0.8527 -0.1834 -0.4891
vt 0.000000 0.000000
s 0
f 5/1/1 6/1/1 16/1/1 15/1/1
f 1/1/1 2/1/1 13/1/1 14/1/1
f 49/1/2 18/1/2 27/1/2 53/1/2
f 4/1/1 5/1/1 15/1/1 69/1/1
f 62/1/3 61/1/3 22/1/3 21/1/3
f 69/1/4 15/1/4 20/1/4 71/1/4
f 47/1/5 14/1/5 18/1/5 49/1/5
f 14/1/6 13/1/6 19/1/6 18/1/6
f 15/1/7 16/1/7 17/1/7 20/1/7
f 13/1/8 70/1/8 67/1/8 19/1/8
f 2/1/1 3/1/1 70/1/1 13/1/1
f 19/1/8 67/1/8 68/1/8 29/1/8
f 66/1/9 60/1/9 26/1/9 52/1/9
f 43/1/1 1/1/1 14/1/1 47/1/1
f 3/1/1 4/1/1 69/1/1 70/1/1
f 20/1/7 17/1/7 28/1/7 30/1/7
f 25/1/10 21/1/10 72/1/10 30/1/10
f 21/1/10 22/1/10 68/1/10 72/1/10
f 52/1/10 26/1/10 28/1/10 54/1/10
f 23/1/10 24/1/10 27/1/10 29/1/10
f 26/1/10 25/1/10 30/1/10 28/1/10
f 22/1/10 23/1/10 29/1/10 68/1/10
f 63/1/6 62/1/6 21/1/6 25/1/6
f 64/1/4 59/1/4 24/1/4 23/1/4
f 71/1/4 20/1/4 30/1/4 72/1/4
f 60/1/8 63/1/8 25/1/8 26/1/8
f 18/1/6 19/1/6 29/1/6 27/1/6
f 61/1/7 64/1/7 23/1/7 22/1/7
f 31/1/11 32/1/11 39/1/11 42/1/11
f 35/1/12 34/1/12 40/1/12 41/1/12
f 34/1/13 33/1/13 38/1/13 40/1/13
f 36/1/14 35/1/14 41/1/14 37/1/14
f 33/1/15 31/1/15 42/1/15 38/1/15
f 56/1/16 36/1/16 37/1/16 57/1/16
f 32/1/16 55/1/16 58/1/16 39/1/16
f 55/1/17 56/1/17 57/1/17 58/1/17
f 32/1/10 31/1/10 33/1/10 34/1/10 35/1/10 36/1/10 56/1/10 55/1/10
f 24/1/10 51/1/10 53/1/10 27/1/10
f 51/1/10 52/1/10 54/1/10 53/1/10
f 6/1/1 44/1/1 48/1/1 16/1/1
f 44/1/1 43/1/1 47/1/1 48/1/1
f 59/1/18 65/1/18 51/1/18 24/1/18
f 65/1/19 66/1/19 52/1/19 51/1/19
f 16/1/20 48/1/20 50/1/20 17/1/20
f 48/1/21 47/1/21 49/1/21 50/1/21
f 17/1/2 50/1/2 54/1/2 28/1/2
f 8/1/22 45/1/22 65/1/22 59/1/22
f 9/1/7 7/1/7 64/1/7 61/1/7
f 12/1/8 11/1/8 63/1/8 60/1/8
f 7/1/4 8/1/4 59/1/4 64/1/4
f 11/1/6 10/1/6 62/1/6 63/1/6
f 46/1/22 12/1/22 60/1/22 66/1/22
f 10/1/3 9/1/3 61/1/3 62/1/3
f 71/1/23 67/1/23 70/1/23 69/1/23
f 72/1/23 68/1/23 67/1/23 71/1/23
f 46/1/10 50/1/10 49/1/10 45/1/10
f 53/1/24 65/1/24 45/1/24 49/1/24
f 54/1/25 50/1/25 46/1/25 66/1/25
f 12/1/26 37/1/26 41/1/26 11/1/26
f 46/1/27 57/1/27 37/1/27 12/1/27
f 58/1/28 45/1/28 8/1/28 39/1/28
f 45/1/29 58/1/29 57/1/29 46/1/29
f 7/1/30 42/1/30 39/1/30 8/1/30
f 9/1/31 38/1/31 42/1/31 7/1/31
f 10/1/32 40/1/32 38/1/32 9/1/32
f 11/1/33 41/1/33 40/1/33 10/1/33
