# Blender 4.4.0
# www.blender.org
mtllib Building_1.mtl
o Building_1
v -24.199097 10.714038 -19.526115
v -27.980911 -12.899356 -22.386242
v 24.199158 10.714038 -19.526119
v 27.980972 -12.899356 -22.386246
v -24.199097 10.714038 17.076729
v -27.980911 -12.899356 19.936855
v 24.199158 10.714038 17.076725
v 27.980972 -12.899356 19.936852
v 27.980972 10.714038 -22.386246
v -27.980911 10.714038 -22.386242
v 27.980972 10.714038 19.936852
v -27.980911 10.714038 19.936855
v 24.199158 -11.700563 -19.526119
v -24.199097 -11.700563 -19.526115
v 24.199158 -11.700563 17.076725
v -24.199097 -11.700563 17.076729
v -24.199097 3.523730 17.076729
v 24.199158 3.523730 17.076725
v 24.199158 3.523730 -19.526119
v -24.199097 3.523730 -19.526115
v 2.063553 10.714036 -22.386244
v -2.063568 10.714036 -22.386244
v -2.063568 -12.899354 -22.386244
v 2.063553 -12.899354 -22.386244
v -2.063568 10.714036 19.936853
v 2.063553 10.714036 19.936853
v 2.063553 -12.899354 19.936853
v -2.063568 -12.899354 19.936853
v 1.784653 10.714036 -19.526117
v -1.784668 10.714036 -19.526117
v -1.784668 10.714036 17.076727
v 1.784653 10.714036 17.076727
v 1.784653 -11.700562 -19.526117
v -1.784668 -11.700562 -19.526117
v -1.784668 -11.700562 17.076727
v 1.784653 -11.700562 17.076727
v 1.784653 3.523730 -19.526117
v -1.784668 3.523730 -19.526117
v -1.784668 3.523730 17.076727
v 1.784653 3.523730 17.076727
v -27.980911 2.522300 -22.386242
v 27.980972 2.522300 -22.386246
v 27.980972 2.522300 19.936852
v -27.980911 2.522300 19.936855
v 2.063553 2.522300 19.936853
v -2.063568 2.522300 19.936853
v -2.063568 2.522300 -22.386244
v 2.063553 2.522300 -22.386244
v -27.980911 -2.837497 -22.386242
v 27.980972 -2.837497 -22.386246
v 27.980972 -2.837497 19.936852
v -27.980911 -2.837497 19.936855
v 2.063553 -2.837496 19.936853
v -2.063568 -2.837496 19.936853
v -2.063568 -2.837496 -22.386244
v 2.063553 -2.837496 -22.386244
v 1.791382 3.499572 17.145725
v -1.791397 3.499572 17.145725
v -1.791397 -3.646577 17.145725
v 1.791382 -3.646577 17.145725
vn -0.0000 -0.0000 -1.0000
vn 1.0000 -0.0000 -0.0000
vn -0.0000 -0.0000 1.0000
vn -1.0000 -0.0000 -0.0000
vn -0.0000 -0.9438 -0.3305
vn -0.0000 -1.0000 -0.0000
vn -0.0000 1.0000 -0.0000
vn -0.0000 0.9605 -0.2784
vn -0.9953 -0.0000 0.0968
vn 0.9953 -0.0000 0.0970
vn 0.9953 -0.0000 0.0971
vn -0.9953 -0.0000 0.0971
vn -0.0000 0.0086 -1.0000
vt 0.557861 0.166667
vt 0.557861 0.250000
vt 0.625000 0.250000
vt 0.625000 0.166667
vt 0.557861 0.500000
vt 0.625000 0.500000
vt 0.557861 0.666667
vt 0.557861 0.750000
vt 0.625000 0.750000
vt 0.625000 0.666667
vt 0.557861 1.000000
vt 0.625000 1.000000
vt 0.361305 0.661171
vt 0.361305 0.588829
vt 0.490721 0.583333
vt 0.490721 0.666667
vt 0.875000 0.750000
vt 0.875000 0.666667
vt 0.141895 0.661035
vt 0.125000 0.666667
vt 0.125000 0.750000
vt 0.141895 0.733105
vt 0.358105 0.516895
vt 0.375000 0.500000
vt 0.125000 0.500000
vt 0.141895 0.516895
vt 0.358105 0.588965
vt 0.375000 0.583333
vt 0.375000 0.750000
vt 0.358105 0.733105
vt 0.358105 0.661035
vt 0.141895 0.588965
vt 0.375000 0.666667
vt 0.125000 0.583333
vt 0.625000 0.583333
vt 0.875000 0.583333
vt 0.875000 0.500000
vt 0.557861 0.583333
vt 0.557861 0.000000
vt 0.557861 0.083333
vt 0.625000 0.083333
vt 0.625000 0.000000
vt 0.375000 0.083333
vt 0.375000 0.166667
vt 0.490721 0.166667
vt 0.490721 0.083333
vt 0.375000 0.000000
vt 0.490721 0.000000
vt 0.490721 0.500000
vt 0.375000 1.000000
vt 0.490721 1.000000
vt 0.490721 0.750000
vt 0.375000 0.250000
vt 0.490721 0.250000
vt 0.362924 0.661171
vt 0.362924 0.588829
s 0
f 56/1/1 50/2/1 4/3/1 24/4/1
f 50/2/2 51/5/2 8/6/2 4/3/2
f 54/7/3 52/8/3 6/9/3 28/10/3
f 52/8/4 49/11/4 2/12/4 6/9/4
f 58/13/5 57/14/5 45/15/5 46/16/5
f 28/10/6 6/9/6 2/17/6 23/18/6
f 30/19/7 22/20/7 10/21/7 1/22/7
f 7/23/7 11/24/7 9/25/7 3/26/7
f 32/27/7 26/28/7 11/24/7 7/23/7
f 1/22/7 10/21/7 12/29/7 5/30/7
f 34/19/7 14/22/7 16/30/7 35/31/7
f 38/19/3 34/19/3 33/32/3 37/32/3
f 20/22/3 14/22/3 34/19/3 38/19/3
f 17/30/2 16/30/2 14/22/2 20/22/2
f 3/26/4 19/26/4 18/23/4 7/23/4
f 5/30/2 17/30/2 20/22/2 1/22/2
f 29/32/3 37/32/3 19/26/3 3/26/3
f 31/31/1 39/31/1 17/30/1 5/30/1
f 7/23/1 18/23/1 40/27/1 32/27/1
f 32/27/1 40/27/1 39/31/1 31/31/1
f 1/22/3 20/22/3 38/19/3 30/19/3
f 30/19/3 38/19/3 37/32/3 29/32/3
f 18/23/1 15/23/1 36/27/1 40/27/1
f 39/31/1 35/31/1 16/30/1 17/30/1
f 13/26/7 33/32/7 36/27/7 15/23/7
f 33/32/7 34/19/7 35/31/7 36/27/7
f 5/30/7 12/29/7 25/33/7 31/31/7
f 31/31/7 25/33/7 26/28/7 32/27/7
f 3/26/7 9/25/7 21/34/7 29/32/7
f 29/32/7 21/34/7 22/20/7 30/19/7
f 8/6/6 27/35/6 24/36/6 4/37/6
f 27/35/6 28/10/6 23/18/6 24/36/6
f 37/32/3 33/32/3 13/26/3 19/26/3
f 51/5/3 53/38/3 27/35/3 8/6/3
f 53/38/3 54/7/3 28/10/3 27/35/3
f 49/39/1 55/40/1 23/41/1 2/42/1
f 55/40/1 56/1/1 24/4/1 23/41/1
f 22/43/1 21/44/1 48/45/1 47/46/1
f 10/47/1 22/43/1 47/46/1 41/48/1
f 26/28/3 25/33/3 46/16/3 45/15/3
f 11/24/3 26/28/3 45/15/3 43/49/3
f 12/29/4 10/50/4 41/51/4 44/52/4
f 25/33/3 12/29/3 44/52/3 46/16/3
f 9/53/2 11/24/2 43/49/2 42/54/2
f 21/44/1 9/53/1 42/54/1 48/45/1
f 47/46/1 48/45/1 56/1/1 55/40/1
f 41/48/1 47/46/1 55/40/1 49/39/1
f 43/49/3 45/15/3 53/38/3 51/5/3
f 44/52/4 41/51/4 49/11/4 52/8/4
f 46/16/3 44/52/3 52/8/3 54/7/3
f 42/54/2 43/49/2 51/5/2 50/2/2
f 48/45/1 42/54/1 50/2/1 56/1/1
f 59/55/8 54/7/8 53/38/8 60/56/8
f 57/14/9 40/27/9 36/27/9 60/56/9
f 58/13/10 59/55/10 35/31/10 39/31/10
f 19/26/4 13/26/4 15/23/4 18/23/4
f 46/16/11 54/7/11 59/55/11 58/13/11
f 45/15/12 57/14/12 60/56/12 53/38/12
f 35/31/13 59/55/13 60/56/13 36/27/13
f 39/31/5 40/27/5 57/14/5 58/13/5
