# Blender 4.4.0
# www.blender.org
mtllib Combined_Building.mtl
o Combined_Building
v -27.285355 -11.581404 -9.620205
v -21.834900 10.497769 -8.985811
v -27.285355 -11.581404 -52.213535
v -21.834900 10.497769 -47.959366
v 27.285324 -11.581404 -9.620205
v 21.834869 10.497769 -8.985811
v 27.285324 -11.581404 -52.213535
v 21.834869 10.497769 -47.959366
v -38.066284 -11.581404 17.966431
v -32.310593 10.497769 17.819790
v 32.310562 10.497769 17.819790
v 38.066254 -11.581404 17.966431
v -25.643494 -11.581404 43.623451
v -21.876617 10.497769 39.369278
v 21.876587 10.497769 39.369278
v 25.643471 -11.581404 43.623451
v -27.285355 10.497769 -9.620205
v -27.285355 10.497769 -52.213535
v 27.285324 10.497769 -52.213535
v 27.285324 10.497769 -9.620205
v -38.066284 10.497769 17.966431
v 38.066254 10.497769 17.966431
v 25.643471 10.497769 43.623451
v -25.643494 10.497769 43.623451
v 21.834869 -9.414139 -8.985811
v -21.834900 -9.414139 -8.985811
v 32.310562 -9.414139 17.819790
v -32.310593 -9.414139 17.819790
v -21.834900 -9.414139 -47.959366
v 21.834869 -9.414139 -47.959366
v 21.876587 -9.414139 39.369278
v -21.876617 -9.414139 39.369278
vn -1.0000 -0.0000 -0.0000
vn -0.0000 -0.0000 -1.0000
vn 1.0000 -0.0000 -0.0000
vn -0.9314 -0.0000 0.3640
vn -0.0000 -1.0000 -0.0000
vn 0.9000 -0.0000 -0.4358
vn 0.9314 -0.0000 -0.3640
vn -0.9314 -0.0000 -0.3640
vn -0.0000 -0.0000 1.0000
vn -0.9000 -0.0000 0.4358
vn 0.9000 -0.0000 0.4358
vn -0.0000 1.0000 -0.0000
vn -0.9000 -0.0000 -0.4358
vn 0.9314 -0.0000 0.3640
vt 0.375000 0.000000
vt 0.625000 0.000000
vt 0.625000 0.250000
vt 0.375000 0.250000
vt 0.625000 0.500000
vt 0.375000 0.500000
vt 0.625000 0.750000
vt 0.375000 0.750000
vt 0.644049 0.750000
vt 0.650460 0.750000
vt 0.125000 0.500000
vt 0.125000 0.750000
vt 0.855951 0.750000
vt 0.850626 0.750000
vt 0.625000 1.000000
vt 0.375000 1.000000
vt 0.649970 0.524970
vt 0.850030 0.524970
vt 0.849540 0.750000
vt 0.875000 0.500000
vt 0.875000 0.750000
vt 0.649374 0.750000
s 0
f 1/1/1 17/2/1 18/3/1 3/4/1
f 3/4/2 18/3/2 19/5/2 7/6/2
f 7/6/3 19/5/3 20/7/3 5/8/3
f 11/9/4 6/10/4 25/10/4 27/9/4
f 3/11/5 7/6/5 5/8/5 1/12/5
f 10/13/6 14/14/6 32/14/6 28/13/6
f 9/12/5 12/8/5 16/8/5 13/12/5
f 5/8/7 20/7/7 22/7/7 12/8/7
f 17/2/8 1/1/8 9/1/8 21/2/8
f 1/12/5 5/8/5 12/8/5 9/12/5
f 16/8/9 23/7/9 24/15/9 13/16/9
f 21/2/10 9/1/10 13/1/10 24/2/10
f 8/17/9 4/18/9 29/18/9 30/17/9
f 12/8/11 22/7/11 23/7/11 16/8/11
f 2/19/12 4/18/12 18/20/12 17/21/12
f 4/18/12 8/17/12 19/5/12 18/20/12
f 8/17/12 6/10/12 20/7/12 19/5/12
f 10/13/12 2/19/12 17/21/12 21/21/12
f 6/10/12 11/9/12 22/7/12 20/7/12
f 15/22/12 14/14/12 24/21/12 23/7/12
f 14/14/12 10/13/12 21/21/12 24/21/12
f 11/9/12 15/22/12 23/7/12 22/7/12
f 25/10/12 26/19/12 28/13/12 27/9/12
f 30/17/12 29/18/12 26/19/12 25/10/12
f 27/9/12 28/13/12 32/14/12 31/22/12
f 6/10/1 8/17/1 30/17/1 25/10/1
f 4/18/3 2/19/3 26/19/3 29/18/3
f 15/22/13 11/9/13 27/9/13 31/22/13
f 14/14/2 15/22/2 31/22/2 32/14/2
f 2/19/14 10/13/14 28/13/14 26/19/14
