# Blender 4.4.0
# www.blender.org
mtllib S_Walkways_Railings.mtl
o S_Walkways_Railings
v 2.500015 -0.966925 -7.500000
v 2.500015 -0.466925 -7.500000
v -2.499985 -0.966925 -7.499998
v -2.499985 -0.466925 -7.499998
v -2.499985 -0.966925 -2.500000
v -2.499985 -0.966925 2.500000
v -2.499985 -0.966925 7.500000
v -2.499985 -0.466925 7.500000
v -2.499985 -0.466925 2.500000
v -2.499985 -0.466925 -2.500000
v 2.500015 -0.966925 7.500000
v 2.500015 -0.966925 2.500000
v 2.500015 -0.966925 -2.500000
v 2.500015 -0.466925 -2.500000
v 2.500015 -0.466925 2.500000
v 2.500015 -0.466925 7.500000
v 1.802650 -0.966925 -7.500000
v -1.802536 -0.966925 -7.500000
v -1.802536 -0.466925 -7.500000
v 1.802650 -0.466925 -7.500000
v -1.802536 -0.966925 7.500000
v 1.802650 -0.966925 7.500000
v -1.802536 -0.966925 2.500001
v 1.802650 -0.966925 2.500001
v -1.802536 -0.966925 -2.499999
v 1.802650 -0.966925 -2.499999
v -1.802536 -0.466925 -2.499999
v 1.802650 -0.466925 -2.499999
v -1.802536 -0.466925 2.500001
v 1.802650 -0.466925 2.500001
v -1.802536 -0.466925 7.500000
v 1.802650 -0.466925 7.500000
v -2.499985 1.481745 -2.500000
v -2.499985 1.481745 -7.499998
v -2.499985 1.481745 7.500000
v -2.499985 1.481745 2.500000
v -1.802536 1.481745 -7.500000
v -1.802536 1.481745 -2.499999
v -1.802536 1.481745 2.500001
v -1.802536 1.481745 7.500000
v 1.802650 1.385954 -7.500000
v 2.500015 1.385954 -7.500000
v 2.500015 1.385954 -2.500000
v 2.500015 1.385954 2.500000
v 2.500015 1.385954 7.500000
v 1.802650 1.385954 -2.499999
v 1.802650 1.385954 2.500001
v 1.802650 1.385954 7.500000
vn -0.0000 -0.0000 -1.0000
vn -0.0000 -1.0000 -0.0000
vn -1.0000 -0.0000 -0.0000
vn 1.0000 -0.0000 -0.0000
vn -0.0000 1.0000 -0.0000
vn -0.0000 -0.0000 1.0000
vt 0.375000 0.666667
vt 0.625000 0.666667
vt 0.625000 0.750000
vt 0.375000 0.750000
vt 0.343750 0.666667
vt 0.343750 0.750000
vt 0.625000 0.468750
vt 0.625000 0.500000
vt 0.375000 0.500000
vt 0.375000 0.468750
vt 0.625000 0.406250
vt 0.625000 0.437500
vt 0.375000 0.437500
vt 0.375000 0.406250
vt 0.625000 0.781250
vt 0.375000 0.781250
vt 0.625000 0.812500
vt 0.375000 0.812500
vt 0.625000 0.843750
vt 0.375000 0.843750
vt 0.281250 0.666667
vt 0.312500 0.666667
vt 0.312500 0.750000
vt 0.281250 0.750000
vt 0.656250 0.666667
vt 0.687500 0.666667
vt 0.625000 0.583333
vt 0.687500 0.583333
vt 0.718750 0.583333
vt 0.718750 0.666667
vt 0.656250 0.583333
vt 0.312500 0.500000
vt 0.343750 0.500000
vt 0.343750 0.583333
vt 0.312500 0.583333
vt 0.281250 0.500000
vt 0.281250 0.583333
vt 0.375000 0.583333
vt 0.687500 0.500000
vt 0.718750 0.500000
vt 0.656250 0.500000
vt 0.656250 0.750000
vt 0.687500 0.750000
vt 0.718750 0.750000
s 0
f 17/1/1 20/2/1 2/3/1 1/4/1
f 26/5/2 17/1/2 1/4/2 13/6/2
f 10/7/3 4/8/3 3/9/3 5/10/3
f 8/11/3 9/12/3 6/13/3 7/14/3
f 9/12/3 10/7/3 5/10/3 6/13/3
f 2/3/4 14/15/4 13/16/4 1/4/4
f 14/15/4 15/17/4 12/18/4 13/16/4
f 15/17/4 16/19/4 11/20/4 12/18/4
f 22/21/2 24/22/2 12/23/2 11/24/2
f 24/22/2 26/5/2 13/6/2 12/23/2
f 16/19/4 15/17/4 44/17/4 45/19/4
f 15/17/4 14/15/4 43/15/4 44/17/4
f 28/25/3 30/26/3 47/26/3 46/25/3
f 14/15/4 2/3/4 42/3/4 43/15/4
f 19/27/1 4/8/1 34/8/1 37/27/1
f 29/28/5 31/29/5 32/30/5 30/26/5
f 27/31/4 19/27/4 37/27/4 38/31/4
f 27/31/5 29/28/5 30/26/5 28/25/5
f 19/27/5 27/31/5 28/25/5 20/2/5
f 6/32/2 5/33/2 25/34/2 23/35/2
f 23/35/2 25/34/2 26/5/2 24/22/2
f 7/36/2 6/32/2 23/35/2 21/37/2
f 21/37/2 23/35/2 24/22/2 22/21/2
f 5/33/2 3/9/2 18/38/2 25/34/2
f 25/34/2 18/38/2 17/1/2 26/5/2
f 3/9/1 4/8/1 19/27/1 18/38/1
f 18/38/1 19/27/1 20/2/1 17/1/1
f 36/39/5 35/40/5 40/29/5 39/28/5
f 33/41/5 36/39/5 39/28/5 38/31/5
f 34/8/5 33/41/5 38/31/5 37/27/5
f 31/29/4 29/28/4 39/28/4 40/29/4
f 4/8/3 10/7/3 33/7/3 34/8/3
f 9/12/3 8/11/3 35/11/3 36/12/3
f 10/7/3 9/12/3 36/12/3 33/7/3
f 29/28/4 27/31/4 38/31/4 39/28/4
f 41/2/5 46/25/5 43/42/5 42/3/5
f 46/25/5 47/26/5 44/43/5 43/42/5
f 47/26/5 48/30/5 45/44/5 44/43/5
f 20/2/3 28/25/3 46/25/3 41/2/3
f 2/3/1 20/2/1 41/2/1 42/3/1
f 30/26/3 32/30/3 48/30/3 47/26/3
f 22/21/6 32/30/6 31/29/6 21/37/6
f 48/30/6 32/30/6 16/19/6 45/19/6
f 16/19/6 32/30/6 22/21/6 11/24/6
f 35/11/6 8/11/6 31/29/6 40/29/6
f 8/11/6 7/36/6 21/37/6 31/29/6
