# Blender 4.4.0
# www.blender.org
mtllib Walkway_Railings.mtl
o Walkway_Railings
v 2.499943 -0.966925 20.000000
v 2.499943 -0.466925 20.000000
v -2.500057 -0.966925 20.000000
v -2.500057 -0.466925 20.000000
v 2.499943 -0.966925 -20.000000
v 2.499943 -0.466925 -20.000000
v -2.500057 -0.966925 -20.000000
v -2.500057 -0.466925 -20.000000
v -2.500057 -0.966925 -15.000000
v -2.500057 -0.966925 -10.000000
v -2.500057 -0.966925 -5.000000
v -2.500057 -0.966925 0.000000
v -2.500057 -0.966925 5.000000
v -2.500057 -0.966925 10.000000
v -2.500057 -0.966925 15.000000
v -2.500057 -0.466925 15.000000
v -2.500057 -0.466925 10.000000
v -2.500057 -0.466925 5.000000
v -2.500057 -0.466925 0.000000
v -2.500057 -0.466925 -5.000000
v -2.500057 -0.466925 -10.000000
v -2.500057 -0.466925 -15.000000
v 2.499943 -0.966925 15.000000
v 2.499943 -0.966925 10.000000
v 2.499943 -0.966925 5.000000
v 2.499943 -0.966925 -0.000000
v 2.499943 -0.966925 -5.000000
v 2.499943 -0.966925 -10.000000
v 2.499943 -0.966925 -15.000000
v 2.499943 -0.466925 -15.000000
v 2.499943 -0.466925 -10.000000
v 2.499943 -0.466925 -5.000000
v 2.499943 -0.466925 -0.000000
v 2.499943 -0.466925 5.000000
v 2.499943 -0.466925 10.000000
v 2.499943 -0.466925 15.000000
v -1.802605 -0.966925 19.999998
v 1.802582 -0.966925 19.999998
v 1.802582 -0.466925 19.999998
v -1.802605 -0.466925 19.999998
v 1.802578 -0.966925 -19.999998
v -1.802608 -0.966925 -19.999998
v -1.802608 -0.466925 -19.999998
v 1.802578 -0.466925 -19.999998
v -1.802605 -0.966925 14.999999
v 1.802582 -0.966925 14.999999
v -1.802608 -0.966925 9.999999
v 1.802582 -0.966925 9.999999
v -1.802608 -0.966925 5.000000
v 1.802582 -0.966925 5.000000
v -1.802608 -0.966925 0.000000
v 1.802582 -0.966925 0.000000
v -1.802608 -0.966925 -5.000000
v 1.802582 -0.966925 -5.000000
v -1.802608 -0.966925 -9.999999
v 1.802582 -0.966925 -9.999999
v -1.802608 -0.966925 -14.999999
v 1.802582 -0.966925 -14.999999
v -1.802608 -0.466925 -14.999999
v 1.802582 -0.466925 -14.999999
v -1.802608 -0.466925 -9.999999
v 1.802582 -0.466925 -9.999999
v -1.802608 -0.466925 -5.000000
v 1.802582 -0.466925 -5.000000
v -1.802608 -0.466925 0.000000
v 1.802582 -0.466925 0.000000
v -1.802608 -0.466925 5.000000
v 1.802582 -0.466925 5.000000
v -1.802608 -0.466925 9.999999
v 1.802582 -0.466925 9.999999
v -1.802605 -0.466925 14.999999
v 1.802582 -0.466925 14.999999
v -1.802605 1.481745 19.999998
v -2.500057 1.481745 20.000000
v -2.500057 1.481745 -15.000000
v -2.500057 1.481745 -20.000000
v -2.500057 1.481745 15.000000
v -2.500057 1.481745 10.000000
v -2.500057 1.481745 5.000000
v -2.500057 1.481745 0.000000
v -2.500057 1.481745 -5.000000
v -2.500057 1.481745 -10.000000
v -1.802608 1.481745 -19.999998
v -1.802608 1.481745 -14.999999
v -1.802608 1.481745 -9.999999
v -1.802608 1.481745 -5.000000
v -1.802608 1.481745 0.000000
v -1.802608 1.481745 5.000000
v -1.802608 1.481745 9.999999
v -1.802605 1.481745 14.999999
v 1.802578 1.385954 -19.999998
v 2.499943 1.385954 -20.000000
v 2.499943 1.385954 15.000000
v 2.499943 1.385954 20.000000
v 2.499943 1.385954 -15.000000
v 2.499943 1.385954 -10.000000
v 2.499943 1.385954 -5.000000
v 2.499943 1.385954 -0.000000
v 2.499943 1.385954 5.000000
v 2.499943 1.385954 10.000000
v 1.802582 1.385954 -14.999999
v 1.802582 1.385954 -9.999999
v 1.802582 1.385954 -5.000000
v 1.802582 1.385954 0.000000
v 1.802582 1.385954 5.000000
v 1.802582 1.385954 9.999999
v 1.802582 1.385954 14.999999
v 1.802582 1.385954 19.999998
vn -0.0000 -0.0000 1.0000
vn -0.0000 -0.0000 -1.0000
vn -1.0000 -0.0000 -0.0000
vn -0.0000 -1.0000 -0.0000
vn 1.0000 -0.0000 -0.0000
vn -0.0000 1.0000 -0.0000
vt 0.375000 0.166667
vt 0.625000 0.166667
vt 0.625000 0.250000
vt 0.375000 0.250000
vt 0.375000 0.666667
vt 0.625000 0.666667
vt 0.625000 0.750000
vt 0.375000 0.750000
vt 0.750000 0.666667
vt 0.781250 0.666667
vt 0.343750 0.666667
vt 0.343750 0.750000
vt 0.625000 0.968750
vt 0.625000 1.000000
vt 0.375000 1.000000
vt 0.375000 0.968750
vt 0.625000 0.468750
vt 0.625000 0.500000
vt 0.375000 0.500000
vt 0.375000 0.468750
vt 0.625000 0.281250
vt 0.375000 0.281250
vt 0.625000 0.312500
vt 0.375000 0.312500
vt 0.625000 0.343750
vt 0.375000 0.343750
vt 0.625000 0.375000
vt 0.375000 0.375000
vt 0.625000 0.406250
vt 0.375000 0.406250
vt 0.625000 0.437500
vt 0.375000 0.437500
vt 0.625000 0.781250
vt 0.375000 0.781250
vt 0.625000 0.812500
vt 0.375000 0.812500
vt 0.625000 0.843750
vt 0.375000 0.843750
vt 0.625000 0.875000
vt 0.375000 0.875000
vt 0.625000 0.906250
vt 0.375000 0.906250
vt 0.625000 0.937500
vt 0.375000 0.937500
vt 0.125000 0.666667
vt 0.156250 0.666667
vt 0.156250 0.750000
vt 0.125000 0.750000
vt 0.187500 0.666667
vt 0.187500 0.750000
vt 0.218750 0.666667
vt 0.218750 0.750000
vt 0.250000 0.666667
vt 0.250000 0.750000
vt 0.281250 0.666667
vt 0.281250 0.750000
vt 0.312500 0.666667
vt 0.312500 0.750000
vt 0.656250 0.666667
vt 0.687500 0.666667
vt 0.812500 0.666667
vt 0.625000 0.083333
vt 0.625000 0.000000
vt 0.625000 0.583333
vt 0.812500 0.583333
vt 0.843750 0.583333
vt 0.843750 0.666667
vt 0.781250 0.583333
vt 0.750000 0.583333
vt 0.718750 0.583333
vt 0.718750 0.666667
vt 0.687500 0.583333
vt 0.656250 0.583333
vt 0.312500 0.500000
vt 0.343750 0.500000
vt 0.343750 0.583333
vt 0.312500 0.583333
vt 0.281250 0.500000
vt 0.281250 0.583333
vt 0.250000 0.500000
vt 0.250000 0.583333
vt 0.218750 0.500000
vt 0.218750 0.583333
vt 0.187500 0.500000
vt 0.187500 0.583333
vt 0.156250 0.500000
vt 0.156250 0.583333
vt 0.125000 0.500000
vt 0.125000 0.583333
vt 0.375000 0.583333
vt 0.875000 0.583333
vt 0.875000 0.666667
vt 0.375000 0.000000
vt 0.375000 0.083333
vt 0.812500 0.500000
vt 0.843750 0.500000
vt 0.781250 0.500000
vt 0.750000 0.500000
vt 0.718750 0.500000
vt 0.687500 0.500000
vt 0.656250 0.500000
vt 0.875000 0.500000
vt 0.875000 0.750000
vt 0.843750 0.750000
vt 0.656250 0.750000
vt 0.687500 0.750000
vt 0.718750 0.750000
vt 0.750000 0.750000
vt 0.781250 0.750000
vt 0.812500 0.750000
s 0
f 37/1/1 40/2/1 4/3/1 3/4/1
f 41/5/2 44/6/2 6/7/2 5/8/2
f 66/9/3 68/10/3 105/10/3 104/9/3
f 58/11/4 41/5/4 5/8/4 29/12/4
f 36/13/5 2/14/5 1/15/5 23/16/5
f 22/17/3 8/18/3 7/19/3 9/20/3
f 4/3/3 16/21/3 15/22/3 3/4/3
f 16/21/3 17/23/3 14/24/3 15/22/3
f 17/23/3 18/25/3 13/26/3 14/24/3
f 18/25/3 19/27/3 12/28/3 13/26/3
f 19/27/3 20/29/3 11/30/3 12/28/3
f 20/29/3 21/31/3 10/32/3 11/30/3
f 21/31/3 22/17/3 9/20/3 10/32/3
f 6/7/5 30/33/5 29/34/5 5/8/5
f 30/33/5 31/35/5 28/36/5 29/34/5
f 31/35/5 32/37/5 27/38/5 28/36/5
f 32/37/5 33/39/5 26/40/5 27/38/5
f 33/39/5 34/41/5 25/42/5 26/40/5
f 34/41/5 35/43/5 24/44/5 25/42/5
f 35/43/5 36/13/5 23/16/5 24/44/5
f 38/45/4 46/46/4 23/47/4 1/48/4
f 46/46/4 48/49/4 24/50/4 23/47/4
f 48/49/4 50/51/4 25/52/4 24/50/4
f 50/51/4 52/53/4 26/54/4 25/52/4
f 52/53/4 54/55/4 27/56/4 26/54/4
f 54/55/4 56/57/4 28/58/4 27/56/4
f 56/57/4 58/11/4 29/12/4 28/58/4
f 32/37/5 31/35/5 96/35/5 97/37/5
f 31/35/5 30/33/5 95/33/5 96/35/5
f 60/59/3 62/60/3 102/60/3 101/59/3
f 2/14/5 36/13/5 93/13/5 94/14/5
f 68/10/3 70/61/3 106/61/3 105/10/3
f 39/62/1 2/63/1 94/63/1 108/62/1
f 30/33/5 6/7/5 92/7/5 95/33/5
f 43/64/2 8/18/2 76/18/2 83/64/2
f 69/65/6 71/66/6 72/67/6 70/61/6
f 19/27/3 18/25/3 79/25/3 80/27/3
f 67/68/6 69/65/6 70/61/6 68/10/6
f 65/69/5 63/70/5 86/70/5 87/69/5
f 65/69/6 67/68/6 68/10/6 66/9/6
f 18/25/3 17/23/3 78/23/3 79/25/3
f 63/70/6 65/69/6 66/9/6 64/71/6
f 17/23/3 16/21/3 77/21/3 78/23/3
f 61/72/6 63/70/6 64/71/6 62/60/6
f 59/73/5 43/64/5 83/64/5 84/73/5
f 59/73/6 61/72/6 62/60/6 60/59/6
f 67/68/5 65/69/5 87/69/5 88/68/5
f 43/64/6 59/73/6 60/59/6 44/6/6
f 10/74/4 9/75/4 57/76/4 55/77/4
f 55/77/4 57/76/4 58/11/4 56/57/4
f 11/78/4 10/74/4 55/77/4 53/79/4
f 53/79/4 55/77/4 56/57/4 54/55/4
f 12/80/4 11/78/4 53/79/4 51/81/4
f 51/81/4 53/79/4 54/55/4 52/53/4
f 13/82/4 12/80/4 51/81/4 49/83/4
f 49/83/4 51/81/4 52/53/4 50/51/4
f 14/84/4 13/82/4 49/83/4 47/85/4
f 47/85/4 49/83/4 50/51/4 48/49/4
f 15/86/4 14/84/4 47/85/4 45/87/4
f 45/87/4 47/85/4 48/49/4 46/46/4
f 3/88/4 15/86/4 45/87/4 37/89/4
f 37/89/4 45/87/4 46/46/4 38/45/4
f 9/75/4 7/19/4 42/90/4 57/76/4
f 57/76/4 42/90/4 41/5/4 58/11/4
f 16/21/3 4/3/3 74/3/3 77/21/3
f 71/66/6 40/91/6 39/92/6 72/67/6
f 7/19/2 8/18/2 43/64/2 42/90/2
f 42/90/2 43/64/2 44/6/2 41/5/2
f 1/93/1 2/63/1 39/62/1 38/94/1
f 38/94/1 39/62/1 40/2/1 37/1/1
f 78/95/6 77/96/6 90/66/6 89/65/6
f 79/97/6 78/95/6 89/65/6 88/68/6
f 80/98/6 79/97/6 88/68/6 87/69/6
f 81/99/6 80/98/6 87/69/6 86/70/6
f 82/100/6 81/99/6 86/70/6 85/72/6
f 75/101/6 82/100/6 85/72/6 84/73/6
f 76/18/6 75/101/6 84/73/6 83/64/6
f 77/96/6 74/102/6 73/91/6 90/66/6
f 71/66/5 69/65/5 89/65/5 90/66/5
f 40/91/5 71/66/5 90/66/5 73/91/5
f 20/29/3 19/27/3 80/27/3 81/29/3
f 63/70/5 61/72/5 85/72/5 86/70/5
f 8/18/3 22/17/3 75/17/3 76/18/3
f 21/31/3 20/29/3 81/29/3 82/31/3
f 4/3/1 40/2/1 73/2/1 74/3/1
f 69/65/5 67/68/5 88/68/5 89/65/5
f 22/17/3 21/31/3 82/31/3 75/17/3
f 61/72/5 59/73/5 84/73/5 85/72/5
f 107/67/6 108/92/6 94/103/6 93/104/6
f 91/6/6 101/59/6 95/105/6 92/7/6
f 101/59/6 102/60/6 96/106/6 95/105/6
f 102/60/6 103/71/6 97/107/6 96/106/6
f 103/71/6 104/9/6 98/108/6 97/107/6
f 104/9/6 105/10/6 99/109/6 98/108/6
f 105/10/6 106/61/6 100/110/6 99/109/6
f 106/61/6 107/67/6 93/104/6 100/110/6
f 44/6/3 60/59/3 101/59/3 91/6/3
f 6/7/2 44/6/2 91/6/2 92/7/2
f 33/39/5 32/37/5 97/37/5 98/39/5
f 64/71/3 66/9/3 104/9/3 103/71/3
f 34/41/5 33/39/5 98/39/5 99/41/5
f 35/43/5 34/41/5 99/41/5 100/43/5
f 70/61/3 72/67/3 107/67/3 106/61/3
f 72/67/3 39/92/3 108/92/3 107/67/3
f 62/60/3 64/71/3 103/71/3 102/60/3
f 36/13/5 35/43/5 100/43/5 93/13/5
