# Blender 4.4.0
# www.blender.org
mtllib Walkway_Halfrailings.mtl
o Walkway_Halfrailings
v 2.930264 -0.689734 20.000000
v 2.930264 -0.189734 20.000000
v -2.069736 -0.689734 20.000000
v -2.069736 -0.189734 20.000000
v 2.930264 -0.689734 -20.000000
v 2.930264 -0.189734 -20.000000
v -2.069736 -0.689734 -20.000000
v -2.069736 -0.189734 -20.000000
v -2.069736 -0.689734 -15.000000
v -2.069736 -0.689734 -10.000000
v -2.069736 -0.689734 -5.000000
v -2.069736 -0.689734 0.000000
v -2.069736 -0.689734 5.000000
v -2.069736 -0.689734 10.000000
v -2.069736 -0.689734 15.000000
v -2.069736 -0.189734 15.000000
v -2.069736 -0.189734 10.000000
v -2.069736 -0.189734 5.000000
v -2.069736 -0.189734 0.000000
v -2.069736 -0.189734 -5.000000
v -2.069736 -0.189734 -10.000000
v -2.069736 -0.189734 -15.000000
v 2.930264 -0.689734 15.000000
v 2.930264 -0.689734 10.000000
v 2.930264 -0.689734 5.000000
v 2.930264 -0.689734 -0.000000
v 2.930264 -0.689734 -5.000000
v 2.930264 -0.689734 -10.000000
v 2.930264 -0.689734 -15.000000
v 2.930264 -0.189734 -15.000000
v 2.930264 -0.189734 -10.000000
v 2.930264 -0.189734 -5.000000
v 2.930264 -0.189734 -0.000000
v 2.930264 -0.189734 5.000000
v 2.930264 -0.189734 10.000000
v 2.930264 -0.189734 15.000000
v -1.372284 -0.689734 19.999998
v 2.232903 -0.689734 19.999998
v 2.232903 -0.189734 19.999998
v -1.372284 -0.189734 19.999998
v 2.232899 -0.689734 -19.999998
v -1.372288 -0.689734 -19.999998
v -1.372288 -0.189734 -19.999998
v 2.232899 -0.189734 -19.999998
v -1.372284 -0.689734 14.999999
v 2.232903 -0.689734 14.999999
v -1.372288 -0.689734 9.999999
v 2.232903 -0.689734 9.999999
v -1.372288 -0.689734 5.000000
v 2.232903 -0.689734 5.000000
v -1.372288 -0.689734 0.000000
v 2.232903 -0.689734 0.000000
v -1.372288 -0.689734 -5.000000
v 2.232903 -0.689734 -5.000000
v -1.372288 -0.689734 -9.999999
v 2.232903 -0.689734 -9.999999
v -1.372288 -0.689734 -14.999999
v 2.232903 -0.689734 -14.999999
v -1.372288 -0.189734 -14.999999
v 2.232903 -0.189734 -14.999999
v -1.372288 -0.189734 -9.999999
v 2.232903 -0.189734 -9.999999
v -1.372288 -0.189734 -5.000000
v 2.232903 -0.189734 -5.000000
v -1.372288 -0.189734 0.000000
v 2.232903 -0.189734 0.000000
v -1.372288 -0.189734 5.000000
v 2.232903 -0.189734 5.000000
v -1.372288 -0.189734 9.999999
v 2.232903 -0.189734 9.999999
v -1.372284 -0.189734 14.999999
v 2.232903 -0.189734 14.999999
v -1.372284 1.758936 19.999998
v -2.069736 1.758936 20.000000
v -2.069736 1.758936 -15.000000
v -2.069736 1.758936 -20.000000
v -2.069736 1.758936 15.000000
v -2.069736 1.758936 10.000000
v -2.069736 1.758936 5.000000
v -2.069736 1.758936 0.000000
v -2.069736 1.758936 -5.000000
v -2.069736 1.758936 -10.000000
v -1.372288 1.758936 -19.999998
v -1.372288 1.758936 -14.999999
v -1.372288 1.758936 -9.999999
v -1.372288 1.758936 -5.000000
v -1.372288 1.758936 0.000000
v -1.372288 1.758936 5.000000
v -1.372288 1.758936 9.999999
v -1.372284 1.758936 14.999999
vn -0.0000 -0.0000 1.0000
vn -0.0000 -0.0000 -1.0000
vn -0.0000 1.0000 -0.0000
vn -0.0000 -1.0000 -0.0000
vn 1.0000 -0.0000 -0.0000
vn -1.0000 -0.0000 -0.0000
vt 0.375000 0.166667
vt 0.625000 0.166667
vt 0.625000 0.250000
vt 0.375000 0.250000
vt 0.375000 0.666667
vt 0.625000 0.666667
vt 0.625000 0.750000
vt 0.375000 0.750000
vt 0.843750 0.666667
vt 0.875000 0.666667
vt 0.875000 0.750000
vt 0.843750 0.750000
vt 0.343750 0.666667
vt 0.343750 0.750000
vt 0.625000 0.968750
vt 0.625000 1.000000
vt 0.375000 1.000000
vt 0.375000 0.968750
vt 0.625000 0.468750
vt 0.625000 0.500000
vt 0.375000 0.500000
vt 0.375000 0.468750
vt 0.625000 0.281250
vt 0.375000 0.281250
vt 0.625000 0.312500
vt 0.375000 0.312500
vt 0.625000 0.343750
vt 0.375000 0.343750
vt 0.625000 0.375000
vt 0.375000 0.375000
vt 0.625000 0.406250
vt 0.375000 0.406250
vt 0.625000 0.437500
vt 0.375000 0.437500
vt 0.625000 0.781250
vt 0.375000 0.781250
vt 0.625000 0.812500
vt 0.375000 0.812500
vt 0.625000 0.843750
vt 0.375000 0.843750
vt 0.625000 0.875000
vt 0.375000 0.875000
vt 0.625000 0.906250
vt 0.375000 0.906250
vt 0.625000 0.937500
vt 0.375000 0.937500
vt 0.125000 0.666667
vt 0.156250 0.666667
vt 0.156250 0.750000
vt 0.125000 0.750000
vt 0.187500 0.666667
vt 0.187500 0.750000
vt 0.218750 0.666667
vt 0.218750 0.750000
vt 0.250000 0.666667
vt 0.250000 0.750000
vt 0.281250 0.666667
vt 0.281250 0.750000
vt 0.312500 0.666667
vt 0.312500 0.750000
vt 0.656250 0.666667
vt 0.656250 0.750000
vt 0.687500 0.666667
vt 0.687500 0.750000
vt 0.718750 0.666667
vt 0.718750 0.750000
vt 0.750000 0.666667
vt 0.750000 0.750000
vt 0.781250 0.666667
vt 0.781250 0.750000
vt 0.812500 0.666667
vt 0.812500 0.750000
vt 0.625000 0.583333
vt 0.812500 0.583333
vt 0.843750 0.583333
vt 0.781250 0.583333
vt 0.750000 0.583333
vt 0.718750 0.583333
vt 0.687500 0.583333
vt 0.656250 0.583333
vt 0.312500 0.500000
vt 0.343750 0.500000
vt 0.343750 0.583333
vt 0.312500 0.583333
vt 0.281250 0.500000
vt 0.281250 0.583333
vt 0.250000 0.500000
vt 0.250000 0.583333
vt 0.218750 0.500000
vt 0.218750 0.583333
vt 0.187500 0.500000
vt 0.187500 0.583333
vt 0.156250 0.500000
vt 0.156250 0.583333
vt 0.125000 0.500000
vt 0.125000 0.583333
vt 0.375000 0.583333
vt 0.875000 0.583333
vt 0.375000 0.000000
vt 0.625000 0.000000
vt 0.625000 0.083333
vt 0.375000 0.083333
vt 0.812500 0.500000
vt 0.843750 0.500000
vt 0.781250 0.500000
vt 0.750000 0.500000
vt 0.718750 0.500000
vt 0.687500 0.500000
vt 0.656250 0.500000
vt 0.875000 0.500000
s 0
f 37/1/1 40/2/1 4/3/1 3/4/1
f 41/5/2 44/6/2 6/7/2 5/8/2
f 72/9/3 39/10/3 2/11/3 36/12/3
f 58/13/4 41/5/4 5/8/4 29/14/4
f 36/15/5 2/16/5 1/17/5 23/18/5
f 22/19/6 8/20/6 7/21/6 9/22/6
f 4/3/6 16/23/6 15/24/6 3/4/6
f 16/23/6 17/25/6 14/26/6 15/24/6
f 17/25/6 18/27/6 13/28/6 14/26/6
f 18/27/6 19/29/6 12/30/6 13/28/6
f 19/29/6 20/31/6 11/32/6 12/30/6
f 20/31/6 21/33/6 10/34/6 11/32/6
f 21/33/6 22/19/6 9/22/6 10/34/6
f 6/7/5 30/35/5 29/36/5 5/8/5
f 30/35/5 31/37/5 28/38/5 29/36/5
f 31/37/5 32/39/5 27/40/5 28/38/5
f 32/39/5 33/41/5 26/42/5 27/40/5
f 33/41/5 34/43/5 25/44/5 26/42/5
f 34/43/5 35/45/5 24/46/5 25/44/5
f 35/45/5 36/15/5 23/18/5 24/46/5
f 38/47/4 46/48/4 23/49/4 1/50/4
f 46/48/4 48/51/4 24/52/4 23/49/4
f 48/51/4 50/53/4 25/54/4 24/52/4
f 50/53/4 52/55/4 26/56/4 25/54/4
f 52/55/4 54/57/4 27/58/4 26/56/4
f 54/57/4 56/59/4 28/60/4 27/58/4
f 56/59/4 58/13/4 29/14/4 28/60/4
f 44/6/3 60/61/3 30/62/3 6/7/3
f 60/61/3 62/63/3 31/64/3 30/62/3
f 62/63/3 64/65/3 32/66/3 31/64/3
f 64/65/3 66/67/3 33/68/3 32/66/3
f 66/67/3 68/69/3 34/70/3 33/68/3
f 68/69/3 70/71/3 35/72/3 34/70/3
f 70/71/3 72/9/3 36/12/3 35/72/3
f 43/73/2 8/20/2 76/20/2 83/73/2
f 69/74/3 71/75/3 72/9/3 70/71/3
f 19/29/6 18/27/6 79/27/6 80/29/6
f 67/76/3 69/74/3 70/71/3 68/69/3
f 65/77/5 63/78/5 86/78/5 87/77/5
f 65/77/3 67/76/3 68/69/3 66/67/3
f 18/27/6 17/25/6 78/25/6 79/27/6
f 63/78/3 65/77/3 66/67/3 64/65/3
f 17/25/6 16/23/6 77/23/6 78/25/6
f 61/79/3 63/78/3 64/65/3 62/63/3
f 59/80/5 43/73/5 83/73/5 84/80/5
f 59/80/3 61/79/3 62/63/3 60/61/3
f 67/76/5 65/77/5 87/77/5 88/76/5
f 43/73/3 59/80/3 60/61/3 44/6/3
f 10/81/4 9/82/4 57/83/4 55/84/4
f 55/84/4 57/83/4 58/13/4 56/59/4
f 11/85/4 10/81/4 55/84/4 53/86/4
f 53/86/4 55/84/4 56/59/4 54/57/4
f 12/87/4 11/85/4 53/86/4 51/88/4
f 51/88/4 53/86/4 54/57/4 52/55/4
f 13/89/4 12/87/4 51/88/4 49/90/4
f 49/90/4 51/88/4 52/55/4 50/53/4
f 14/91/4 13/89/4 49/90/4 47/92/4
f 47/92/4 49/90/4 50/53/4 48/51/4
f 15/93/4 14/91/4 47/92/4 45/94/4
f 45/94/4 47/92/4 48/51/4 46/48/4
f 3/95/4 15/93/4 45/94/4 37/96/4
f 37/96/4 45/94/4 46/48/4 38/47/4
f 9/82/4 7/21/4 42/97/4 57/83/4
f 57/83/4 42/97/4 41/5/4 58/13/4
f 16/23/6 4/3/6 74/3/6 77/23/6
f 71/75/3 40/98/3 39/10/3 72/9/3
f 7/21/2 8/20/2 43/73/2 42/97/2
f 42/97/2 43/73/2 44/6/2 41/5/2
f 1/99/1 2/100/1 39/101/1 38/102/1
f 38/102/1 39/101/1 40/2/1 37/1/1
f 78/103/3 77/104/3 90/75/3 89/74/3
f 79/105/3 78/103/3 89/74/3 88/76/3
f 80/106/3 79/105/3 88/76/3 87/77/3
f 81/107/3 80/106/3 87/77/3 86/78/3
f 82/108/3 81/107/3 86/78/3 85/79/3
f 75/109/3 82/108/3 85/79/3 84/80/3
f 76/20/3 75/109/3 84/80/3 83/73/3
f 77/104/3 74/110/3 73/98/3 90/75/3
f 71/75/5 69/74/5 89/74/5 90/75/5
f 40/98/5 71/75/5 90/75/5 73/98/5
f 20/31/6 19/29/6 80/29/6 81/31/6
f 63/78/5 61/79/5 85/79/5 86/78/5
f 8/20/6 22/19/6 75/19/6 76/20/6
f 21/33/6 20/31/6 81/31/6 82/33/6
f 4/3/1 40/2/1 73/2/1 74/3/1
f 69/74/5 67/76/5 88/76/5 89/74/5
f 22/19/6 21/33/6 82/33/6 75/19/6
f 61/79/5 59/80/5 84/80/5 85/79/5
